<?xml version="1.0" standalone="no"?>
<!DOCTYPE svg PUBLIC "-//W3C//DTD SVG 20010904//EN"
 "http://www.w3.org/TR/2001/REC-SVG-20010904/DTD/svg10.dtd">
<svg version="1.0" xmlns="http://www.w3.org/2000/svg"
 width="640.000000pt" height="640.000000pt" viewBox="0 0 640.000000 640.000000"
 preserveAspectRatio="xMidYMid meet">

<g transform="translate(0.000000,640.000000) scale(0.100000,-0.100000)"
fill="#000000" stroke="none">
<path d="M2821 6310 c-777 -102 -1476 -471 -1973 -1039 -418 -478 -675 -1041
-765 -1676 -25 -182 -25 -638 1 -805 62 -405 152 -693 321 -1025 612 -1208
1960 -1893 3295 -1674 672 111 1273 420 1741 896 438 445 711 965 833 1588 51
265 61 371 60 660 -1 247 -3 282 -27 413 -14 78 -31 160 -37 181 -29 110 -148
157 -236 92 -27 -19 -1592 -1588 -1753 -1756 -2 -2 45 -52 104 -111 l108 -107
756 761 c416 419 761 762 766 762 18 0 18 -385 0 -550 -62 -568 -273 -1078
-626 -1511 -463 -566 -1139 -934 -1864 -1014 -216 -23 -323 -27 -485 -15 -499
36 -896 161 -1311 412 -694 420 -1164 1116 -1305 1932 -135 778 68 1570 566
2216 98 126 340 367 470 467 462 354 977 552 1550 594 780 58 1566 -224 2135
-765 95 -90 143 -113 202 -97 103 28 151 126 109 224 -27 64 -311 308 -526
452 -378 252 -814 417 -1300 491 -170 26 -627 28 -809 4z"/>
<path d="M4530 4983 c-19 -36 -48 -76 -63 -89 -21 -17 -24 -24 -12 -24 9 0 14
-4 10 -10 -3 -5 -13 -6 -23 -3 -15 6 -16 5 -2 -12 14 -17 13 -18 -2 -12 -29
10 -22 2 48 -59 l65 -57 95 94 c52 51 94 97 94 101 0 4 -30 30 -66 58 -64 48
-104 63 -104 38 0 -6 -3 -8 -6 -5 -4 4 -1 13 5 21 7 8 8 16 4 19 -5 3 -24 -24
-43 -60z"/>
</g>
</svg>
